<svg version="1" xmlns="http://www.w3.org/2000/svg" width="549.333" height="549.333" viewBox="0 0 412.000000 412.000000"><path d="M118.9 102.4c-.2.2-2.9.6-5.9 1-5 .5-8.2 1.3-19.5 4.6-5.9 1.8-18.7 8.3-26.7 13.7-15 10-31.8 28.5-41.7 45.8C6.7 199.6-1.3 247.1 7.2 274c5.7 18.3 19.6 34.4 36.3 42 25.2 11.6 66.5 8.2 94-7.8 20.4-11.9 41.2-34.9 48.8-54l1.7-4.2h-34.7l-1.3 2.7c-5.8 11.6-19.7 25.8-30.9 31.7-11.5 6-18.2 7.8-31.1 8.2-29.5.9-44-10.3-47.9-36.8-1.1-8.2-.2-28.2 1.5-30.9.3-.5 34.3-.9 77-.9 42 0 76.4-.3 76.5-.8 0-.4.2-1.4.4-2.2 1-4.6 4.6-26.2 5.1-30.5 3.9-34-4.3-59-24-72.9-14.7-10.5-27.4-14.6-46.7-15.2-6.9-.2-12.7-.2-13 0zm16.9 32.1c20.7 4.3 32.3 20.8 31.6 45.2-.1 3.2-.2 7.9-.3 10.5l-.1 4.8H50.1l2.3-6.8c8.2-23.9 24.8-42 46.6-50.9 3.4-1.3 8-2.8 10.3-3.2 6.5-1.2 19.8-1 26.5.4zM293.8 103.5c-.2.2-2.8.6-5.8.9-17.2 2.1-33.7 9.1-44.9 19.2-6.5 5.8-14.4 17.9-17.1 25.9-2.5 7.6-5 21.4-4 22 1.2.7 24 .3 24-.4.1-3.4 3.4-14.8 5.5-19.4 8.3-17.4 24-25.5 51-26.2 31.5-.9 47.6 7.8 53.7 29 2.8 9.6 1.7 25.5-2 30-3.5 4.1-11.6 7.3-22.7 9-2.2.3-6.7 1-10 1.5s-8.5 1.2-11.5 1.5c-5.9.6-5.9.6-23 3-50.2 7-73.4 25.6-74.6 59.8-.8 20.4 5.7 35.8 19.9 47.2 12.8 10.3 25.6 14.4 46.7 15.1 27.7.8 51.6-8.4 72.9-28.2l5.9-5.4.7 6.2c1.3 11.6 5.9 19 13.9 22.3 6.1 2.6 18.9 2.9 27.1.7l7-1.8.3-9.6.3-9.6-4.5 1.3c-7.6 2.3-10.8 2.5-14.3.8-6.1-2.8-6.1-3.4-6.3-73.8-.1-72.3 0-70.8-4-82.4-3.3-10-9.2-18.2-17.4-24.5-12.4-9.4-31.6-14.5-54.8-14.4-6.5 0-11.9.2-12 .3zM358 226.8c-.1 12-.7 22.2-1.5 26.1-5.5 26.7-32 44.8-68 46.7-18.6 1-30.5-2.6-40.3-12.3-7.7-7.6-9.6-12.5-9.6-24.8 0-12.9 2.5-19.8 9.7-26.8 10.2-9.9 23.7-14.5 50.7-17.1 23.9-2.4 32.1-3.3 35-4.1.8-.2 2.9-.7 4.6-1 2.3-.3 14.9-4.5 19.2-6.4.1 0 .2 8.8.2 19.7z"/></svg>